<?xml version="1.0" encoding="UTF-8"?><svg xmlns="http://www.w3.org/2000/svg" viewBox="0 0 100 13"><path d="M0 0c.3 1.1 1.3 2.3 2.6 2.6h4.1l.2.1V13h2.5V2.7l.2-.1h4.1c1.4-.4 2.3-1.5 2.6-2.6H0zM77.8 13c1.3-.5 2-1.5 2.2-2.6H68.7l-.1-.2V7.1l.1-.2h8.8l.1-.2V4.6l-.1-.2h-8.8l-.1-.2V2.1l.1-.2h11.3c1.2-.7 1.8-1.8 2-2.6H66.5l-.1.2v11.4l.1.2h11.3zM26.5 13c1.3-.5 2-1.5 2.2-2.6H17.4l-.1-.2V7.1l.1-.2h8.8l.1-.2V4.6l-.1-.2h-8.8l-.1-.2V2.1l.1-.2h11.3c1.2-.7 1.8-1.8 2-2.6H15.2l-.1.2v11.4l.1.2h11.3zM43.2 2.1c0-.1 0-.1-.1-.2h-5.7l-.1.2v11.4l.1.2h5.7l.1-.2v-3.9l.1-.2h4.3c2.4 0 3.8-.9 4.3-2.6V5.9c-.7-2.1-2.3-3.7-4.5-3.7l-4.1-.1zM43.2 7.1l.1-.2h4.2V5.7h-4.2l-.1-.2V2.1c0-.1 0-.1.1-.2h4.2V2c0-.1 0-.1-.1-.1h-.4c-1.5 0-2.5.5-3.2 2-.1.2-.2.3-.2.5v2.9c.8.2 0 0 0 0zM49.9 13h2.7V4.5L52.7 0H49l3.7 13zm3.4-13l-.1.4h.3l-.2-.4zM71.3 13h2.7V4.5L74.1 0h-3.7l3.7 13zm3.4-13l-.1.4h.3l-.2-.4zM56.1 13c1-.5 1.5-1.5 1.7-2.6h-4.4l-3.1-10.4h-2.6L54.4 13h1.7zm-5.1-10.8l.9 3.6-1.9-3.6zM87.7 4.5c-.9-3.7-3.8-5.1-8.1-3.4l-.5.3v11.5l.1.2h2.5v-11c.1-.2.2-.1.2-.1 2.2-.6 3.7.2 4.3 2.4l.6 1.1v7.6h2.5V6.3l-.8-1.8z" fill="currentColor"></path><path d="M99.9 10.4c-.5-1.6-1.9-2.3-4-.7l-2.7 2.9v.7h8.8c-.1-1.1-.6-2-2.1-2.9zm-2-8c-.9.4-1.5.8-3.1.5l-1.4-.3h1.5c1 .1 1.9.3 3 2.1v-2.3z" fill="currentColor"></path></svg>
